<svg width="14" height="15" viewBox="0 0 14 15" fill="none" xmlns="http://www.w3.org/2000/svg">
<path d="M9.66667 14.1667H4.33333C1.9 14.1667 0.5 12.7667 0.5 10.3333V4.66667C0.5 2.23334 1.9 0.833336 4.33333 0.833336H9.66667C12.1 0.833336 13.5 2.23334 13.5 4.66667V10.3333C13.5 12.7667 12.1 14.1667 9.66667 14.1667ZM4.33333 1.83334C2.42667 1.83334 1.5 2.76 1.5 4.66667V10.3333C1.5 12.24 2.42667 13.1667 4.33333 13.1667H9.66667C11.5733 13.1667 12.5 12.24 12.5 10.3333V4.66667C12.5 2.76 11.5733 1.83334 9.66667 1.83334H4.33333Z" fill="#292D32"/>
</svg>
