<svg width="16" height="17" viewBox="0 0 16 17" fill="none" xmlns="http://www.w3.org/2000/svg">
<path d="M3.64248 16.045C2.89248 16.045 2.16498 15.7525 1.58748 15.19C0.649977 14.275 0.424977 12.925 1.00998 11.755L2.22498 9.32501C2.47998 8.81501 2.47998 8.20001 2.22498 7.68251L1.00998 5.24501C0.424977 4.07501 0.649977 2.72501 1.58748 1.81001C2.52498 0.895008 3.87498 0.692508 5.03748 1.30751L13.73 5.88251C14.705 6.39251 15.3125 7.39751 15.3125 8.50001C15.3125 9.60251 14.705 10.6075 13.73 11.1175L5.03748 15.6925C4.58748 15.9325 4.11498 16.045 3.64248 16.045ZM3.64998 2.08001C3.13248 2.08001 2.68248 2.32001 2.37498 2.62001C1.90998 3.07001 1.57998 3.87251 2.01498 4.75001L3.22998 7.18001C3.64248 8.01251 3.64248 8.99501 3.22998 9.82751L2.01498 12.2575C1.57248 13.135 1.90998 13.9375 2.37498 14.3875C2.83998 14.8375 3.64248 15.16 4.51248 14.7025L13.205 10.1275C13.82 9.80501 14.1875 9.19751 14.1875 8.50751C14.1875 7.81751 13.82 7.21001 13.205 6.88751L4.51248 2.29751C4.21248 2.14001 3.91998 2.08001 3.64998 2.08001Z" fill="white"/>
</svg>
