<svg width="16" height="17" viewBox="0 0 16 17" fill="none" xmlns="http://www.w3.org/2000/svg">
<path d="M11.555 14.0744C11.7152 13.8531 11.7811 13.5772 11.7381 13.3074C11.6951 13.0376 11.5468 12.7959 11.3258 12.6353C11.3164 12.6283 10.6227 12.1136 9.61531 11.0073C11.4739 8.49109 12.5267 5.62844 12.9561 4.28125H14.4688C14.7423 4.28125 15.0046 4.1726 15.198 3.9792C15.3913 3.78581 15.5 3.5235 15.5 3.25C15.5 2.9765 15.3913 2.71419 15.198 2.5208C15.0046 2.3274 14.7423 2.21875 14.4688 2.21875H9.03125V1.28125C9.03125 1.00775 8.9226 0.745443 8.7292 0.552046C8.53581 0.358649 8.2735 0.25 8 0.25C7.7265 0.25 7.46419 0.358649 7.2708 0.552046C7.0774 0.745443 6.96875 1.00775 6.96875 1.28125V2.21875H1.53125C1.25775 2.21875 0.995443 2.3274 0.802046 2.5208C0.608649 2.71419 0.5 2.9765 0.5 3.25C0.5 3.5235 0.608649 3.78581 0.802046 3.9792C0.995443 4.1726 1.25775 4.28125 1.53125 4.28125H10.7773C10.3311 5.54453 9.50938 7.53906 8.25594 9.36063C6.78359 7.40688 6.23656 6.14266 6.23234 6.13234C6.12456 5.88324 5.92291 5.68668 5.67114 5.58529C5.41937 5.4839 5.13778 5.48585 4.88743 5.59072C4.63709 5.6956 4.43819 5.89494 4.33387 6.14551C4.22954 6.39608 4.22821 6.67767 4.33016 6.92922C4.35734 6.99391 5.01219 8.53375 6.80797 10.8634C6.85109 10.9192 6.89375 10.9736 6.93641 11.028C5.09703 13.1069 3.29234 14.3964 2.53719 14.8127C2.29706 14.9436 2.1188 15.1646 2.04162 15.427C1.96444 15.6894 1.99465 15.9718 2.12563 16.2119C2.2566 16.452 2.47759 16.6303 2.74 16.7074C3.0024 16.7846 3.28472 16.7544 3.52484 16.6234C3.62609 16.5681 5.80297 15.363 8.28875 12.6114C9.34438 13.7402 10.07 14.2727 10.1136 14.3036C10.2233 14.3833 10.3476 14.4405 10.4794 14.4721C10.6113 14.5037 10.748 14.509 10.8819 14.4876C11.0158 14.4663 11.1442 14.4188 11.2597 14.3478C11.3751 14.2768 11.4755 14.1837 11.555 14.0739V14.0744Z" fill="#737373"/>
</svg>
