<svg width="15" height="16" viewBox="0 0 15 16" fill="none" xmlns="http://www.w3.org/2000/svg">
<path d="M2.55746 15.3125C1.71746 15.3125 1.18496 15.0275 0.847462 14.69C0.187461 14.03 -0.277539 12.6275 1.20746 9.65L1.85996 8.3525C1.94246 8.18 1.94246 7.82 1.85996 7.6475L1.20746 6.35C-0.285039 3.3725 0.187461 1.9625 0.847462 1.31C1.49996 0.650001 2.90996 0.177501 5.87996 1.67L12.3 4.88C13.8975 5.675 14.775 6.785 14.775 8C14.775 9.215 13.8975 10.325 12.3075 11.12L5.88746 14.33C4.43246 15.0575 3.35246 15.3125 2.55746 15.3125ZM2.55746 1.8125C2.15246 1.8125 1.83746 1.91 1.64246 2.105C1.09496 2.645 1.31246 4.0475 2.21246 5.84L2.86496 7.145C3.10496 7.6325 3.10496 8.3675 2.86496 8.855L2.21246 10.1525C1.31246 11.9525 1.09496 13.3475 1.64246 13.8875C2.18246 14.435 3.58496 14.2175 5.38496 13.3175L11.805 10.1075C12.9825 9.5225 13.65 8.75 13.65 7.9925C13.65 7.235 12.975 6.4625 11.7975 5.8775L5.37746 2.675C4.23746 2.105 3.25496 1.8125 2.55746 1.8125Z" fill="white"/>
<path d="M6.63008 8.5625H2.58008C2.27258 8.5625 2.01758 8.3075 2.01758 8C2.01758 7.6925 2.27258 7.4375 2.58008 7.4375H6.63008C6.93758 7.4375 7.19258 7.6925 7.19258 8C7.19258 8.3075 6.93758 8.5625 6.63008 8.5625Z" fill="white"/>
</svg>
